# xmcd
#
# Track frame offsets:
#	150
#	17859
#	36774
#	57625
#	75023
#	96889
#	115946
#	134648
#	154546
#	173750
#	195904
#	213283
#	233250
#	253037
#	272969
#	293191
#	312024
#	329292
#
# Disc length: 4664 seconds
#
# Revision: 0
# Processed by: cddbd v1.5.1PL0 Copyright (c) Steve Scherf et al.
# Submitted via: dBpowerAMP V4.0
#
DISCID=ee123612
DTITLE=庾澄庆 - 哈世纪 LIVE SHOW
DYEAR=2002
DGENRE=R&B
TTITLE0=命中注定
TTITLE1=最骄傲的理由
TTITLE2=情非得以
TTITLE3=你的大眼睛
TTITLE4=海啸
TTITLE5=想念你
TTITLE6=我最摇摆
TTITLE7=爱转动
TTITLE8=老实情歌
TTITLE9=让我一次爱个够
TTITLE10=想哭就到我怀里哭
TTITLE11=快乐颂
TTITLE12=只有为你
TTITLE13=热情的沙漠
TTITLE14=熟悉
TTITLE15=请开窗
TTITLE16=改变所有的错
TTITLE17=恰似你的温柔
EXTD=
EXTT0=
EXTT1=
EXTT2=
EXTT3=
EXTT4=
EXTT5=
EXTT6=
EXTT7=
EXTT8=
EXTT9=
EXTT10=
EXTT11=
EXTT12=
EXTT13=
EXTT14=
EXTT15=
EXTT16=
EXTT17=
PLAYORDER=
